<svg width="100" height="100" viewBox="0 0 100 100" fill="none" xmlns="http://www.w3.org/2000/svg">
<path d="M12.5 87.5H28.125L74.2083 41.4167L58.5833 25.7917L12.5 71.875V87.5ZM20.8333 75.3333L58.5833 37.5833L62.4167 41.4167L24.6667 79.1666H20.8333V75.3333ZM76.5417 13.7083C76.1562 13.3221 75.6983 13.0156 75.1943 12.8065C74.6902 12.5974 74.1499 12.4898 73.6042 12.4898C73.0585 12.4898 72.5181 12.5974 72.0141 12.8065C71.51 13.0156 71.0521 13.3221 70.6667 13.7083L63.0417 21.3333L78.6667 36.9583L86.2917 29.3333C86.6779 28.9479 86.9844 28.49 87.1935 27.9859C87.4025 27.4819 87.5102 26.9415 87.5102 26.3958C87.5102 25.8501 87.4025 25.3098 87.1935 24.8057C86.9844 24.3017 86.6779 23.8438 86.2917 23.4583L76.5417 13.7083Z" fill="black"/>
</svg>
