<svg width="100" height="100" viewBox="0 0 100 100" fill="none" xmlns="http://www.w3.org/2000/svg">
<path d="M65.6458 59.3958H62.3542L61.1875 58.2708C65.412 53.3709 67.7338 47.1154 67.7292 40.6458C67.7292 35.2893 66.1408 30.053 63.1648 25.5992C60.1889 21.1453 55.959 17.674 51.0102 15.6241C46.0614 13.5742 40.6158 13.0379 35.3621 14.0829C30.1085 15.1279 25.2827 17.7074 21.495 21.495C17.7074 25.2827 15.1279 30.1085 14.0829 35.3621C13.0379 40.6158 13.5742 46.0614 15.6241 51.0102C17.674 55.959 21.1453 60.1889 25.5992 63.1648C30.053 66.1408 35.2893 67.7292 40.6458 67.7292C47.3542 67.7292 53.5208 65.2708 58.2708 61.1875L59.3958 62.3542V65.6458L80.2292 86.4375L86.4375 80.2292L65.6458 59.3958ZM40.6458 59.3958C30.2708 59.3958 21.8958 51.0208 21.8958 40.6458C21.8958 30.2708 30.2708 21.8958 40.6458 21.8958C51.0208 21.8958 59.3958 30.2708 59.3958 40.6458C59.3958 51.0208 51.0208 59.3958 40.6458 59.3958Z" fill="black"/>
</svg>
