<svg width="51" height="62" viewBox="0 0 51 62" fill="none" xmlns="http://www.w3.org/2000/svg">
<path fill-rule="evenodd" clip-rule="evenodd" d="M16.8632 9.67744C16.8632 9.67744 19.7685 6.34265 24.8527 5.81954C29.9368 5.29644 33.9646 7.25808 33.9646 7.25808L35.1531 0.850045L28.8804 3.8579L23.7962 0L20.3627 4.381L13.958 3.8579L16.8632 9.67744ZM27.0316 28.3787C27.0316 28.3787 29.4086 50.4144 7.28911 55.2532C11.9111 61.7264 47.8305 72.777 50.9999 36.0291C50.0095 14.2546 32.8421 6.47342 26.4373 6.66981C26.4373 6.66981 20.0326 6.34287 17.0613 11.7047C10.5245 13.6663 9.53407 17.5896 9.53407 17.5896C9.53407 17.5896 18.3819 17.1973 19.3063 18.6358C19.3063 18.6358 18.329 20.4748 18.9761 22.7553C19.58 24.8833 21.7109 27.4632 24.3244 27.4632C26.9016 27.4632 28.8307 25.9239 29.6067 24.2592C29.9731 23.4731 30.0564 22.6513 30.1186 22.0368C30.1778 21.4522 30.218 21.0552 30.4651 21.0552C31.5215 21.0552 32.9081 25.8939 27.0316 28.3787ZM15.4105 34.7868C15.4105 34.7868 10.0623 30.9288 0.290025 31.3212C-0.645756 39.56 0.554209 46.0335 5.77038 53.5531C23.6864 47.8611 24.6713 36.8978 25.2433 30.5302L25.2433 30.5301L25.2433 30.53L25.2433 30.5298C25.289 30.0216 25.332 29.5426 25.3808 29.098C18.5139 29.6864 15.4105 34.7868 15.4105 34.7868ZM25.5129 10.9198C26.2392 10.9198 27.0316 11.2206 27.0316 12.4237C27.0316 13.6269 26.1072 13.9277 25.579 13.9277C24.1263 13.9277 23.9283 12.7507 23.9283 12.4237C23.9943 10.9198 25.3149 10.9198 25.5129 10.9198Z" fill="#E0E7FF"/>
</svg>
