<svg width="100" height="100" viewBox="0 0 100 100" fill="none" xmlns="http://www.w3.org/2000/svg">
<path d="M75 54.1583H54.1666V74.9917C54.1666 76.0967 53.7277 77.1566 52.9463 77.938C52.1649 78.7194 51.105 79.1583 50 79.1583C48.8949 79.1583 47.8351 78.7194 47.0537 77.938C46.2723 77.1566 45.8333 76.0967 45.8333 74.9917V54.1583H25C23.8949 54.1583 22.8351 53.7194 22.0537 52.938C21.2723 52.1566 20.8333 51.0967 20.8333 49.9917C20.8333 48.8866 21.2723 47.8268 22.0537 47.0454C22.8351 46.264 23.8949 45.825 25 45.825H45.8333V24.9917C45.8333 23.8866 46.2723 22.8268 47.0537 22.0454C47.8351 21.264 48.8949 20.825 50 20.825C51.105 20.825 52.1649 21.264 52.9463 22.0454C53.7277 22.8268 54.1666 23.8866 54.1666 24.9917V45.825H75C76.105 45.825 77.1649 46.264 77.9463 47.0454C78.7277 47.8268 79.1666 48.8866 79.1666 49.9917C79.1666 51.0967 78.7277 52.1566 77.9463 52.938C77.1649 53.7194 76.105 54.1583 75 54.1583Z" fill="black"/>
</svg>
