<svg width="100" height="100" viewBox="0 0 100 100" fill="none" xmlns="http://www.w3.org/2000/svg">
<path opacity="0.3" d="M50 66.6667C38.7917 66.6667 25.9583 72 25 75H75C74.1667 72.0417 61.25 66.6667 50 66.6667Z" fill="black"/>
<path opacity="0.3" d="M50 41.6667C54.6023 41.6667 58.3333 37.9357 58.3333 33.3333C58.3333 28.731 54.6023 25 50 25C45.3976 25 41.6666 28.731 41.6666 33.3333C41.6666 37.9357 45.3976 41.6667 50 41.6667Z" fill="black"/>
<path d="M50 58.3333C38.875 58.3333 16.6666 63.9167 16.6666 75V83.3333H83.3333V75C83.3333 63.9167 61.125 58.3333 50 58.3333ZM25 75C25.9166 72 38.7916 66.6667 50 66.6667C61.25 66.6667 74.1666 72.0417 75 75H25ZM50 50C59.2083 50 66.6666 42.5417 66.6666 33.3333C66.6666 24.125 59.2083 16.6667 50 16.6667C40.7916 16.6667 33.3333 24.125 33.3333 33.3333C33.3333 42.5417 40.7916 50 50 50ZM50 25C54.5833 25 58.3333 28.75 58.3333 33.3333C58.3333 37.9167 54.5833 41.6667 50 41.6667C45.4166 41.6667 41.6666 37.9167 41.6666 33.3333C41.6666 28.75 45.4166 25 50 25Z" fill="black"/>
</svg>
