<svg width="100" height="100" viewBox="0 0 100 100" fill="none" xmlns="http://www.w3.org/2000/svg">
<path fill-rule="evenodd" clip-rule="evenodd" d="M83.3334 12.5H16.6667C12.0834 12.5 8.33337 16.25 8.33337 20.8333V79.1667C8.33337 83.75 12.0834 87.5 16.6667 87.5H83.3334C87.9167 87.5 91.6667 83.75 91.6667 79.1667V20.8333C91.6667 16.25 87.9167 12.5 83.3334 12.5ZM37.5 70.8333H25C22.7084 70.8333 20.8334 68.9583 20.8334 66.6667C20.8334 64.375 22.7084 62.5 25 62.5H37.5C39.7917 62.5 41.6667 64.375 41.6667 66.6667C41.6667 68.9583 39.7917 70.8333 37.5 70.8333ZM37.5 54.1667H25C22.7084 54.1667 20.8334 52.2917 20.8334 50C20.8334 47.7083 22.7084 45.8333 25 45.8333H37.5C39.7917 45.8333 41.6667 47.7083 41.6667 50C41.6667 52.2917 39.7917 54.1667 37.5 54.1667ZM37.5 37.5H25C22.7084 37.5 20.8334 35.625 20.8334 33.3333C20.8334 31.0417 22.7084 29.1667 25 29.1667H37.5C39.7917 29.1667 41.6667 31.0417 41.6667 33.3333C41.6667 35.625 39.7917 37.5 37.5 37.5ZM77.9167 46.3333L64.7084 59.5417C63.0834 61.1667 60.4167 61.1667 58.7917 59.5417L52.9167 53.625C52.531 53.2392 52.225 52.7813 52.0162 52.2773C51.8074 51.7732 51.7 51.233 51.7 50.6875C51.7 50.142 51.8074 49.6018 52.0162 49.0977C52.225 48.5937 52.531 48.1358 52.9167 47.75C53.3025 47.3642 53.7604 47.0582 54.2644 46.8495C54.7685 46.6407 55.3087 46.5332 55.8542 46.5332C56.3998 46.5332 56.94 46.6407 57.444 46.8495C57.948 47.0582 58.406 47.3642 58.7917 47.75L61.75 50.7083L72.0417 40.4167C72.4272 40.0304 72.8851 39.724 73.3891 39.5149C73.8932 39.3058 74.4335 39.1981 74.9792 39.1981C75.5249 39.1981 76.0653 39.3058 76.5693 39.5149C77.0734 39.724 77.5312 40.0304 77.9167 40.4167L77.9584 40.4583C79.5417 42.0833 79.5417 44.75 77.9167 46.3333Z" fill="black"/>
</svg>
