<svg width="100" height="100" viewBox="0 0 100 100" fill="none" xmlns="http://www.w3.org/2000/svg">
<path d="M79.1667 45.8333H32.625L52.9583 25.5C54.5833 23.875 54.5833 21.2083 52.9583 19.5833C52.5729 19.1971 52.115 18.8906 51.6109 18.6815C51.1069 18.4724 50.5665 18.3648 50.0208 18.3648C49.4751 18.3648 48.9348 18.4724 48.4307 18.6815C47.9267 18.8906 47.4688 19.1971 47.0833 19.5833L19.625 47.0417C19.2387 47.4271 18.9323 47.885 18.7232 48.3891C18.5141 48.8931 18.4065 49.4335 18.4065 49.9792C18.4065 50.5249 18.5141 51.0652 18.7232 51.5693C18.9323 52.0733 19.2387 52.5312 19.625 52.9167L47.0833 80.375C47.4691 80.7607 47.9271 81.0667 48.4311 81.2755C48.9351 81.4843 49.4753 81.5917 50.0208 81.5917C50.5664 81.5917 51.1066 81.4843 51.6106 81.2755C52.1146 81.0667 52.5726 80.7607 52.9583 80.375C53.3441 79.9892 53.6501 79.5313 53.8589 79.0272C54.0676 78.5232 54.1751 77.983 54.1751 77.4375C54.1751 76.8919 54.0676 76.3517 53.8589 75.8477C53.6501 75.3437 53.3441 74.8857 52.9583 74.5L32.625 54.1667H79.1667C81.4583 54.1667 83.3333 52.2917 83.3333 50C83.3333 47.7083 81.4583 45.8333 79.1667 45.8333Z" fill="black"/>
</svg>
