<?xml version="1.0" standalone="no"?>
<!DOCTYPE svg PUBLIC "-//W3C//DTD SVG 20010904//EN"
 "http://www.w3.org/TR/2001/REC-SVG-20010904/DTD/svg10.dtd">
<svg version="1.0" xmlns="http://www.w3.org/2000/svg"
 width="788.000000pt" height="788.000000pt" viewBox="0 0 788.000000 788.000000"
 preserveAspectRatio="xMidYMid meet">
<metadata>
Created by potrace 1.14, written by Peter Selinger 2001-2017
</metadata>
<g transform="translate(0.000000,788.000000) scale(0.100000,-0.100000)"
fill="#000000" stroke="none">
<path d="M3674 7813 c-15 -21 -31 -40 -34 -43 -3 -3 -30 -39 -60 -80 -43 -59
-147 -197 -207 -275 -5 -6 -27 -35 -51 -66 -39 -52 -45 -56 -80 -53 -20 2 -37
3 -37 4 0 1 -27 3 -60 5 -67 5 -143 12 -225 19 -30 3 -86 8 -125 11 -38 3 -90
7 -115 10 -25 2 -85 7 -133 10 -82 5 -87 4 -79 -12 6 -10 37 -74 70 -143 33
-69 97 -201 142 -295 45 -93 102 -213 127 -265 25 -52 49 -100 54 -106 7 -9
25 5 62 45 29 31 57 59 62 63 6 3 21 16 35 28 97 86 213 161 340 221 116 56
190 83 190 71 0 -4 4 -2 8 4 8 12 146 46 242 59 159 22 345 22 515 0 98 -12
120 -16 158 -26 21 -6 50 -12 65 -14 78 -11 384 -118 419 -147 12 -10 17 0 27
65 8 43 29 158 41 217 2 14 7 41 10 60 8 49 17 101 22 125 7 35 12 59 17 95 3
19 8 49 11 65 3 17 10 55 15 85 5 30 12 67 15 83 3 15 7 39 10 55 3 15 7 37
10 50 6 26 -16 30 -35 7 -7 -8 -17 -15 -22 -15 -13 0 -262 -124 -266 -132 -2
-5 -8 -8 -14 -8 -5 0 -110 -49 -232 -110 -122 -60 -225 -110 -230 -110 -8 0
-86 56 -141 102 -11 9 -60 48 -110 87 -49 39 -95 75 -102 80 -6 6 -55 45 -110
87 -54 42 -100 79 -103 83 -6 8 -58 41 -63 41 -3 0 -17 -17 -33 -37z"/>
<path d="M3906 7003 c-2 -3 -57 -10 -121 -17 -69 -8 -265 -63 -281 -79 -4 -4
-14 -7 -22 -7 -19 0 -83 -30 -106 -49 -10 -9 -20 -14 -22 -11 -2 3 -46 -23
-99 -58 -119 -80 -254 -214 -325 -325 -33 -51 -65 -89 -80 -95 -37 -15 -64
-25 -75 -28 -74 -20 -355 -162 -391 -199 -8 -7 -23 -17 -34 -20 -11 -3 -20
-10 -20 -14 0 -4 -20 -22 -44 -39 -37 -27 -94 -82 -161 -156 -79 -87 -166
-245 -179 -327 -4 -26 -3 -26 47 -21 75 7 513 6 642 -2 117 -7 173 -13 300
-32 46 -7 106 -24 148 -42 42 -19 41 -13 13 -112 -65 -222 -19 -494 115 -681
10 -15 19 -30 19 -33 0 -17 145 -167 205 -213 104 -79 249 -123 381 -117 83 3
91 4 164 24 25 7 45 11 45 11 0 -7 153 75 187 99 58 41 156 139 163 162 4 10
10 18 15 18 7 0 85 145 80 152 -1 2 4 17 10 33 7 17 14 44 16 60 2 17 7 43 10
60 7 30 15 103 16 143 1 50 38 7 58 -67 42 -158 -22 -368 -153 -503 -94 -97
-141 -132 -279 -203 l-87 -44 6 -38 c7 -55 7 -354 -1 -453 -8 -115 -17 -200
-23 -230 -2 -14 -5 -32 -5 -40 0 -8 -11 -78 -24 -155 -69 -403 -197 -767 -383
-1089 -28 -49 -51 -93 -51 -97 0 -5 -4 -9 -8 -9 -4 0 -16 -15 -27 -32 -24 -41
-115 -170 -129 -183 -6 -5 -33 -37 -59 -70 -51 -63 -190 -208 -249 -260 -19
-16 -56 -48 -82 -70 -27 -22 -58 -48 -70 -59 -55 -48 -315 -211 -439 -275 -75
-39 -139 -71 -142 -71 -3 0 -26 -10 -52 -21 -168 -73 -560 -195 -645 -202 -10
-1 -18 -5 -18 -10 0 -13 50 -77 110 -140 52 -56 228 -197 244 -197 4 0 22 -11
39 -24 61 -46 392 -216 421 -216 6 0 16 -4 21 -9 30 -26 456 -170 550 -186 11
-2 20 -4 20 -5 0 -3 176 -44 230 -54 68 -13 163 -28 185 -31 8 -1 40 -5 70
-10 153 -22 272 -29 505 -29 190 -1 328 5 425 19 19 2 55 7 79 10 25 3 47 8
50 9 3 2 29 7 56 10 28 4 57 9 65 11 8 2 27 6 41 9 105 18 387 109 509 165 30
13 57 25 60 26 7 1 107 53 170 88 30 17 64 35 75 41 11 6 22 13 25 16 3 3 28
20 55 37 161 102 370 285 513 449 64 72 212 270 212 282 0 6 4 12 8 14 20 7
242 405 242 432 0 3 15 38 33 78 34 72 47 104 53 123 2 6 28 82 59 170 31 88
56 160 55 160 -1 0 1 7 3 15 8 27 29 103 33 122 2 10 6 27 9 38 3 11 7 29 10
41 2 11 6 28 9 37 3 9 7 28 10 42 3 14 7 34 10 45 14 62 25 114 30 145 3 19 8
46 10 60 12 66 36 220 41 260 3 25 8 61 11 80 23 171 23 414 -1 580 -2 14 -6
52 -10 85 -10 91 -32 230 -49 311 -2 12 -7 38 -10 58 -3 21 -17 83 -31 139
-14 56 -27 111 -30 122 -2 11 -18 67 -36 125 -17 58 -32 110 -34 115 -1 6 -8
24 -14 40 -7 17 -14 37 -16 46 -6 31 -134 335 -179 427 -95 191 -260 465 -343
567 -5 6 -19 26 -33 45 -123 177 -406 471 -625 647 -67 54 -216 163 -222 163
-4 0 -16 8 -27 19 -27 23 -205 130 -311 186 -100 53 -302 145 -318 145 -7 0
-24 6 -38 14 -14 7 -39 17 -55 21 -38 11 -29 8 -113 34 -62 19 -120 33 -232
56 -71 15 -372 29 -383 18z m110 -638 c76 -49 60 -217 -25 -252 -80 -34 -168
-7 -201 62 -32 65 -24 127 21 175 27 27 40 33 94 43 29 5 81 -8 111 -28z"/>
<path d="M3857 4194 c-1 -1 -24 -5 -52 -8 -27 -4 -59 -9 -70 -11 -11 -3 -31
-7 -45 -9 -37 -7 -172 -45 -195 -55 -27 -12 -58 -24 -71 -26 -14 -3 -205 -97
-219 -108 -5 -4 -32 -22 -60 -39 -27 -18 -52 -35 -55 -38 -3 -3 -32 -25 -65
-49 -73 -53 -234 -214 -294 -294 -36 -48 -46 -55 -58 -45 -40 32 -232 128
-363 180 -111 44 -319 113 -370 122 -14 2 -32 7 -40 10 -14 5 -31 9 -97 21
-16 3 -39 8 -53 11 -14 3 -36 8 -50 10 -14 2 -41 7 -60 10 -57 10 -72 12 -135
19 -33 4 -74 9 -91 11 -18 2 -81 6 -140 9 -60 2 -111 5 -114 6 -33 7 -305 -2
-313 -10 -6 -6 -12 -23 -13 -38 -1 -16 -5 -50 -8 -78 -16 -148 -21 -276 -21
-510 0 -266 10 -431 31 -545 2 -14 6 -43 9 -65 3 -22 8 -53 12 -70 3 -16 8
-37 9 -45 4 -24 14 -72 24 -120 6 -25 12 -54 15 -65 20 -93 95 -326 150 -465
79 -200 267 -562 376 -722 21 -32 39 -62 39 -68 0 -5 3 -10 8 -10 4 0 14 -13
24 -29 16 -28 25 -31 58 -18 8 3 60 22 115 41 130 45 218 78 280 106 56 24
100 42 100 40 0 -3 350 174 355 179 3 3 29 19 58 34 132 71 308 194 502 352
46 38 276 270 321 325 111 134 232 317 300 453 19 37 42 84 53 105 10 20 19
41 20 47 1 5 4 15 8 20 13 21 68 174 93 260 15 50 29 97 32 105 10 25 11 30
42 175 16 77 32 158 35 180 3 22 8 60 11 85 3 25 8 56 10 70 6 34 15 123 20
190 3 30 7 73 9 95 2 22 7 72 10 110 4 39 9 91 12 118 l5 47 -46 -2 c-26 -2
-47 -4 -48 -4z"/>
</g>
</svg>
